<?xml version="1.0" encoding="UTF-8"?>
<svg width="700pt" height="700pt" version="1.1" viewBox="0 0 700 700" xmlns="http://www.w3.org/2000/svg" xmlns:xlink="http://www.w3.org/1999/xlink">
 <defs>


 </defs>
 <g>
  <path d="m522.43 116.34c0-37.594-30.648-68.242-68.242-68.242s-68.242 30.648-68.242 68.242c0 27.781 16.758 51.746 40.633 62.34v34.902l-76.75 76.75-76.23-76.23v-35.422c23.789-10.68 40.457-34.555 40.457-62.25 0-37.594-30.648-68.242-68.242-68.242s-68.242 30.559-68.242 68.152c0 27.781 16.758 51.746 40.633 62.34v57.477h0.86719l-0.86719 0.86719 104.19 104.19v51.398c-23.961 10.594-40.633 34.555-40.633 62.34 0 37.594 30.648 68.242 68.242 68.242s68.242-30.648 68.242-68.242c0-27.695-16.668-51.66-40.457-62.25v-52.008l103.66-103.67-0.86719-0.86719h1.3906v-57.562c23.785-10.68 40.457-34.555 40.457-62.254zm-276.62-34.379c18.926 0 34.383 15.453 34.383 34.383 0 18.926-15.453 34.383-34.383 34.383-18.926 0-34.383-15.453-34.383-34.383 0.003906-18.93 15.457-34.383 34.383-34.383zm104.19 407.37c-18.926 0-34.383-15.453-34.383-34.383 0-18.926 15.453-34.383 34.383-34.383 18.926 0 34.383 15.453 34.383 34.383 0 18.926-15.457 34.383-34.383 34.383zm104.19-338.61c-18.926 0-34.383-15.453-34.383-34.383 0-18.926 15.453-34.383 34.383-34.383 18.926 0 34.383 15.453 34.383 34.383-0.003906 18.93-15.457 34.383-34.383 34.383z"/>
 </g>
</svg>
